<?xml version="1.0" encoding="UTF-8" standalone="no"?>
<svg
   xmlns:dc="http://purl.org/dc/elements/1.1/"
   xmlns:cc="http://creativecommons.org/ns#"
   xmlns:rdf="http://www.w3.org/1999/02/22-rdf-syntax-ns#"
   xmlns:svg="http://www.w3.org/2000/svg"
   xmlns="http://www.w3.org/2000/svg"
   id="svg2"
   height="1080"
   width="1920"
   version="1.1">
  <defs
     id="defs4" />
  <metadata
     id="metadata7">
    <rdf:RDF>
      <cc:Work
         rdf:about="">
        <dc:format>image/svg+xml</dc:format>
        <dc:type
           rdf:resource="http://purl.org/dc/dcmitype/StillImage" />
        <dc:title />
      </cc:Work>
    </rdf:RDF>
  </metadata>
  <g
     id="line1"
     style="font-style:normal;font-weight:normal;font-size:143px;font-family:'SF Collegiate Solid';text-anchor:middle;fill:#ff0000"
     aria-label="wednesday">
    <path
       id="path9"
       style="font-style:normal;font-weight:normal;font-size:143px;font-family:'SF Collegiate Solid';text-anchor:middle;fill:#ff0000"
       d="M 92.691895,99.926758 75.934082,190 H 55.335937 L 50.168945,159.97559 45.071777,190 H 24.473633 L 7.7158203,99.926758 H 26.987305 L 37.321289,149.6416 45.071777,99.926758 H 55.335937 L 63.086426,149.6416 73.350586,99.926758 Z" />
    <path
       id="path11"
       style="font-style:normal;font-weight:normal;font-size:143px;font-family:'SF Collegiate Solid';text-anchor:middle;fill:#ff0000"
       d="M 144.85059,190 H 99.744141 V 99.926758 H 144.85059 V 119.19824 H 119.08545 V 135.39746 H 144.85059 V 154.66895 H 119.08545 V 170.72852 H 144.85059 Z" />
    <path
       id="path13"
       style="font-style:normal;font-weight:normal;font-size:143px;font-family:'SF Collegiate Solid';text-anchor:middle;fill:#ff0000"
       d="M 191.42334,170.72852 V 119.19824 H 178.57568 V 170.72852 Z M 210.76465,177.15234 197.84717,190 H 159.23437 V 99.926758 H 197.84717 L 210.76465,112.77441 Z" />
    <path
       id="path15"
       style="font-style:normal;font-weight:normal;font-size:143px;font-family:'SF Collegiate Solid';text-anchor:middle;fill:#ff0000"
       d="M 276.67871,190 H 257.3374 L 244.48975,153.9707 V 190 H 225.14844 V 99.926758 H 244.48975 L 257.3374,135.95605 V 99.926758 H 276.67871 Z" />
    <path
       id="path17"
       style="font-style:normal;font-weight:normal;font-size:143px;font-family:'SF Collegiate Solid';text-anchor:middle;fill:#ff0000"
       d="M 336.16895,190 H 291.0625 V 99.926758 H 336.16895 V 119.19824 H 310.40381 V 135.39746 H 336.16895 V 154.66895 H 310.40381 V 170.72852 H 336.16895 Z" />
    <path
       id="path19"
       style="font-style:normal;font-weight:normal;font-size:143px;font-family:'SF Collegiate Solid';text-anchor:middle;fill:#ff0000"
       d="M 402.08301,177.15234 389.16553,190 H 363.47021 L 350.55273,177.15234 V 164.23486 H 369.89404 V 170.72852 H 382.7417 V 154.66895 H 363.47021 L 350.55273,141.82129 V 112.77441 L 363.47021,99.926758 H 389.16553 L 402.08301,112.77441 V 125.62207 H 382.7417 V 119.19824 H 369.89404 V 135.39746 H 389.16553 L 402.08301,148.24512 Z" />
    <path
       id="path21"
       style="font-style:normal;font-weight:normal;font-size:143px;font-family:'SF Collegiate Solid';text-anchor:middle;fill:#ff0000"
       d="M 448.65576,170.72852 V 119.19824 H 435.80811 V 170.72852 Z M 467.99707,177.15234 455.07959,190 H 416.4668 V 99.926758 H 455.07959 L 467.99707,112.77441 Z" />
    <path
       id="path23"
       style="font-style:normal;font-weight:normal;font-size:143px;font-family:'SF Collegiate Solid';text-anchor:middle;fill:#ff0000"
       d="M 509.6123,157.81104 504.86426,129.95117 500.11621,157.81104 Z M 534.46973,190 H 515.12842 L 513.03369,177.15234 H 496.69482 L 494.53027,190 H 475.25879 L 492.0166,99.926758 H 517.71191 Z" />
    <path
       id="path25"
       style="font-style:normal;font-weight:normal;font-size:143px;font-family:'SF Collegiate Solid';text-anchor:middle;fill:#ff0000"
       d="M 592.354,99.926758 573.08252,147.54687 V 190 H 553.74121 V 147.54687 L 534.46973,99.926758 H 553.74121 L 563.37695,125.06348 573.08252,99.926758 Z" />
  </g>
  <g
     id="line2"
     style="font-style:normal;font-weight:normal;font-size:143px;font-family:'SF Collegiate Solid';text-anchor:middle;fill:#ff0000"
     aria-label="april">
    <path
       id="path28"
       style="font-style:normal;font-weight:normal;font-size:143px;font-family:'SF Collegiate Solid';text-anchor:middle;fill:#ff0000"
       d="M 195.96191,267.81104 191.21387,239.95117 186.46582,267.81104 Z M 220.81934,300 H 201.47803 L 199.3833,287.15234 H 183.04443 L 180.87988,300 H 161.6084 L 178.36621,209.92676 H 204.06152 Z" />
    <path
       id="path30"
       style="font-style:normal;font-weight:normal;font-size:143px;font-family:'SF Collegiate Solid';text-anchor:middle;fill:#ff0000"
       d="M 260.13037,245.39746 V 229.19824 H 247.28271 V 245.39746 Z M 279.47168,251.82129 266.5542,264.66895 H 247.28271 V 300 H 227.94141 V 209.92676 H 266.5542 L 279.47168,222.77441 Z" />
    <path
       id="path32"
       style="font-style:normal;font-weight:normal;font-size:143px;font-family:'SF Collegiate Solid';text-anchor:middle;fill:#ff0000"
       d="M 322.41357,245.39746 V 229.19824 H 309.56592 V 245.39746 Z M 341.75488,300 H 322.41357 V 264.66895 H 309.56592 V 300 H 290.22461 V 209.92676 H 328.8374 L 341.75488,222.77441 V 245.95605 L 332.74756,254.96338 341.75488,263.9707 Z" />
    <path
       id="path34"
       style="font-style:normal;font-weight:normal;font-size:143px;font-family:'SF Collegiate Solid';text-anchor:middle;fill:#ff0000"
       d="M 375.47998,300 H 356.13867 V 209.92676 H 375.47998 Z" />
    <path
       id="path36"
       style="font-style:normal;font-weight:normal;font-size:143px;font-family:'SF Collegiate Solid';text-anchor:middle;fill:#ff0000"
       d="M 434.76074,300 H 389.6543 V 209.92676 H 408.99561 V 280.72852 H 434.76074 Z" />
  </g>
</svg>
