<?xml version="1.0" encoding="UTF-8" standalone="yes"?>
<!-- Created with sK1/UniConvertor (http://sk1project.org/) -->
<svg xmlns="http://www.w3.org/2000/svg" xmlns:xlink="http://www.w3.org/1999/xlink"
  width="1536pt" height="864pt" viewBox="0 0 1536 864"
  fill-rule="evenodd">
<g>
<g>
<path style="stroke:none; fill:#ff0000" d="M 134.649 141.722L 124.315 152L 129.699 152L 93.425 141.722L 93.425 699.765L 136.123 699.765L 136.123 693.271L 148.97 693.271L 148.97 709.331L 129.699 709.331L 93.425 113.457L 93.425 751.226L 103.759 79.9414L 155.394 79.9414L 134.649 90.2195L 134.649 738.378L 148.97 738.378L 148.97 744.802L 136.123 744.802L 136.123 728.603L 155.394 728.603L 134.649 118.596L 134.649 141.722z"/>
<path style="stroke:none; fill:#ff0000" d="M 187.38 141.722L 177.046 152L 195.613 152L 146.156 141.722L 146.156 764.073L 202.037 764.073L 202.037 693.271L 214.884 693.271L 214.884 764.073L 234.226 764.073L 187.38 141.722z"/>
<path style="stroke:none; fill:#ff0000" d="M 240.112 152L 280.798 152L 214.361 123.177L 214.361 674L 248.609 674L 248.609 764.073L 267.951 764.073L 224.639 108.765L 224.639 764.073L 300.14 764.073L 240.112 152z"/>
<path style="stroke:none; fill:#ff0000" d="M 277.37 136.583L 277.37 744.802L 333.865 744.802L 333.865 693.271L 277.37 136.583zM 292.843 141.722L 282.509 152L 314.523 152L 314.523 764.073L 353.136 764.073L 292.843 90.2195L 292.843 141.722z"/>
<path style="stroke:none; fill:#ff0000" d="M 326.135 126.249L 322.337 103.961L 318.538 126.249L 326.135 126.249zM 346.021 152L 413.185 152L 328.872 141.722L 394.751 141.722L 314.07 152L 373.315 152L 312.059 79.9414L 415.769 79.9414L 346.021 152z"/>
<path style="stroke:none; fill:#ff0000" d="M 392.329 79.9414L 376.911 118.037L 376.911 674L 451.798 674L 451.798 716.453L 346.021 79.9414L 451.798 79.9414L 369.147 100.051L 376.911 79.9414L 392.329 79.9414z"/>
</g>
<g>
<path style="stroke:none; fill:#ff0000" d="M 182.577 229.722L 172.298 240L 189.678 240L 141.408 229.722L 141.408 596.189L 196.102 596.189L 196.102 583.271L 208.949 583.271L 208.949 654.073L 228.221 654.073L 182.577 229.722z"/>
<path style="stroke:none; fill:#ff0000" d="M 235.308 229.722L 224.974 240L 255.522 240L 194.084 229.722L 194.084 654.073L 261.946 654.073L 261.946 583.271L 274.793 583.271L 274.793 654.073L 294.135 654.073L 235.308 229.722z"/>
<path style="stroke:none; fill:#ff0000" d="M 288.039 240L 340.708 240L 262.288 211.177L 262.288 564L 308.519 564L 308.519 654.073L 327.86 654.073L 272.566 196.765L 272.566 654.073L 360.049 654.073L 288.039 240z"/>
<path style="stroke:none; fill:#ff0000" d="M 335.631 240L 374.433 240L 374.433 654.073L 419.539 654.073L 419.539 634.802L 393.774 634.802L 393.774 618.603L 419.539 618.603L 419.539 599.331L 393.774 599.331L 393.774 583.271L 419.539 583.271L 335.631 240z"/>
</g>
</g>
</svg>