<?xml version="1.0" encoding="UTF-8" standalone="no"?>
<svg
   xmlns:dc="http://purl.org/dc/elements/1.1/"
   xmlns:cc="http://creativecommons.org/ns#"
   xmlns:rdf="http://www.w3.org/1999/02/22-rdf-syntax-ns#"
   xmlns:svg="http://www.w3.org/2000/svg"
   xmlns="http://www.w3.org/2000/svg"
   id="svg2"
   height="48.07169"
   width="327.60349"
   version="1.1">
  <defs
     id="defs4" />
  <metadata
     id="metadata7">
    <rdf:RDF>
      <cc:Work
         rdf:about="">
        <dc:format>image/svg+xml</dc:format>
        <dc:type
           rdf:resource="http://purl.org/dc/dcmitype/StillImage" />
        <dc:title />
      </cc:Work>
    </rdf:RDF>
  </metadata>
  <g
     transform="translate(-4.1088416,-960.72117)"
     id="maintext"
     style="font-style:normal;font-weight:normal;font-size:46px;font-family:'NOVU M';text-anchor:middle;fill:#ff0000"
     aria-label="WEDNESDAY/12">
    <path
       id="path13"
       d="M 36.233539,116.22298 26.791401,117.45365 22.085038,99.140319 22.229982,118.04817 12.787845,119.27883 4.1088416,83.298771 9.3088591,82.621015 16.879693,114.01383 16.698358,81.657887 22.765045,80.867172 30.883249,112.18864 30.154544,79.904045 35.400175,79.220343 Z" />
    <path
       id="path15"
       d="M 51.516138,91.90158 58.46914,91.164141 59.02222,96.378893 52.069217,97.116332 53.325774,108.96388 60.278777,108.22644 60.831856,113.4412 48.709844,114.72686 44.828587,78.132111 56.950598,76.846445 57.503678,82.061197 50.550675,82.798636 Z" />
    <path
       id="path17"
       d="M 81.496218,74.72539 Q 82.504754,74.641727 83.253238,75.318165 84.047564,75.9908 84.131227,76.999336 L 86.766606,108.76821 Q 86.842664,109.68507 86.303753,110.42214 85.764843,111.15922 84.859401,111.3728 L 71.885963,112.44901 68.843678,75.774979 Z M 79.133349,80.183414 74.503253,80.567502 76.682289,106.83528 81.312386,106.45119 Z" />
    <path
       id="path19"
       d="M 113.22139,72.658864 115.36709,109.39626 110.13201,109.70202 110.12933,109.6561 101.56148,89.190843 102.78453,110.13116 97.549451,110.43692 95.403757,73.699526 100.63884,73.393764 109.20668,93.859017 107.98631,72.964626 Z" />
    <path
       id="path21"
       d="M 132.48887,86.234723 139.47659,85.989979 139.66014,91.230765 132.67243,91.475509 133.08946,103.38221 140.07717,103.13746 140.26073,108.37825 128.0782,108.80494 126.79008,72.027494 138.97261,71.600802 139.15616,76.841588 132.16845,77.086333 Z" />
    <path
       id="path23"
       d="M 160.82301,76.496083 156.17733,76.550082 156.29281,86.485411 164.06629,86.395056 164.06736,86.48705 Q 164.9889,86.614348 165.59488,87.297351 166.20086,87.980354 166.21155,88.900291 L 166.40509,105.55117 Q 166.41578,106.4711 165.82584,107.16801 165.2359,107.86491 164.31703,107.9676 L 164.31757,108.0136 153.73828,108.13656 Q 152.86434,108.14672 152.2145,107.64824 151.28548,106.87699 151.27211,105.72706 L 151.16625,96.61968 156.4099,96.55873 156.48314,102.8603 161.12883,102.80631 161.00052,91.767051 Q 159.7586,91.781487 156.99879,91.813565 154.23844,91.799647 152.90399,91.769155 152.44242,91.636511 152.02524,91.365341 151.09621,90.594087 151.08285,89.444165 L 150.90107,73.805221 Q 150.89358,73.161264 151.25461,72.559028 151.57017,72.003323 152.11839,71.674929 152.66661,71.346535 153.31057,71.33905 L 163.56787,71.219824 Q 164.57981,71.208062 165.27831,71.935992 166.02228,72.617391 166.03405,73.629323 L 166.1244,81.402798 160.88076,81.463747 Z" />
    <path
       id="path25"
       d="M 192.54592,71.366914 Q 193.55784,71.379649 194.23852,72.124274 194.9652,72.869478 194.95247,73.881398 L 194.5513,105.75687 Q 194.53972,106.6768 193.93309,107.35922 193.32645,108.04164 192.40479,108.16805 L 179.38782,108.00423 179.85093,71.207141 Z M 189.67415,76.575186 185.02852,76.516719 184.69682,102.87263 189.34245,102.9311 Z" />
    <path
       id="path27"
       d="M 210.0122,103.62674 209.28443,108.61826 204.04366,108.43407 209.28977,71.795723 218.8059,72.13017 221.46691,109.04641 216.18017,108.86061 215.80462,103.83031 Z M 213.86005,76.651244 210.74805,98.405362 215.43715,98.570161 Z" />
    <path
       id="path29"
       d="M 240.52003,97.971112 239.81582,110.09468 234.58064,109.79059 235.28485,97.66702 230.42322,72.687067 235.79617,72.999161 238.53196,86.981334 242.86824,73.409951 248.28711,73.724712 Z" />
    <path
       id="path31"
       d="M 259.66105,113.21773 255.67264,112.88814 272.97354,73.884459 276.96195,74.214041 Z" />
    <path
       id="path33"
       d="M 300.27731,115.219 285.27516,113.61175 285.82888,108.44333 290.95157,108.99215 293.75446,82.829862 288.63178,82.281043 289.1855,77.11262 299.52234,78.220057 296.16573,109.55076 300.83103,110.05058 Z" />
    <path
       id="path35"
       d="M 331.69084,84.745445 Q 331.78085,84.061341 331.494,83.420446 331.24676,82.831159 330.74148,82.439904 330.2362,82.048648 329.5977,81.96464 L 317.01019,80.308484 316.32612,85.507675 326.17722,86.803798 324.8691,96.746111 317.11592,95.726015 Q 316.23739,95.703218 315.50288,96.348921 314.81998,96.955018 314.69997,97.867157 L 312.53377,114.33126 Q 312.41375,115.2434 312.91664,116.00551 313.46512,116.77363 314.31966,116.97885 L 314.31365,117.02446 327.22042,118.72262 327.90448,113.52343 318.09899,112.2333 319.53313,101.33324 Q 320.76451,101.49526 324.09982,101.88769 327.43513,102.28013 327.57795,102.25252 327.9032,102.24892 328.49849,101.95607 329.51264,101.30077 329.66265,100.16059 Z" />
  </g>
  <path
     id="path39"
     d="M 3.8911584,-840.72117 Q 167.89116,-864.72117 331.89116,-840.72117"
     style="fill:none;stroke:#000000;stroke-width:0px;stroke-linecap:butt;stroke-linejoin:miter;stroke-opacity:1" />
</svg>
