<?xml version="1.0" encoding="UTF-8" standalone="no"?>
<svg
   xmlns:dc="http://purl.org/dc/elements/1.1/"
   xmlns:cc="http://creativecommons.org/ns#"
   xmlns:rdf="http://www.w3.org/1999/02/22-rdf-syntax-ns#"
   xmlns:svg="http://www.w3.org/2000/svg"
   xmlns="http://www.w3.org/2000/svg"
   id="svg2"
   height="1080"
   width="1920"
   version="1.1">
  <defs
     id="defs4" />
  <metadata
     id="metadata7">
    <rdf:RDF>
      <cc:Work
         rdf:about="">
        <dc:format>image/svg+xml</dc:format>
        <dc:type
           rdf:resource="http://purl.org/dc/dcmitype/StillImage" />
        <dc:title />
      </cc:Work>
    </rdf:RDF>
  </metadata>
  <g
     id="line1"
     style="font-style:normal;font-weight:normal;font-size:72px;font-family:Noir;fill:#ff0000"
     aria-label="wednesday">
    <path
       id="path10"
       style="font-style:normal;font-weight:normal;font-size:72px;font-family:Noir;fill:#ff0000"
       d="M 255.89844,110.73047 245.66797,150 H 239.55078 L 229.46094,119.73047 219.44141,150 H 213.35937 L 203.02344,110.73047 H 209.91406 L 217.12109,141.14062 226.92969,110.73047 H 232.37891 L 242.43359,141.14062 249.25391,110.73047 Z" />
    <path
       id="path12"
       style="font-style:normal;font-weight:normal;font-size:72px;font-family:Noir;fill:#ff0000"
       d="M 298.29687,131.05078 H 269.36328 Q 269.36328,134.67187 270.45312,137.37891 271.54297,140.05078 273.44141,141.77344 275.26953,143.46094 277.76562,144.30469 280.29687,145.14844 283.32031,145.14844 287.32812,145.14844 291.37109,143.56641 295.44922,141.94922 297.17187,140.40234 H 297.52344 V 147.60937 Q 294.18359,149.01562 290.70312,149.96484 287.22266,150.91406 283.39062,150.91406 273.61719,150.91406 268.13281,145.64062 262.64844,140.33203 262.64844,130.59375 262.64844,120.96094 267.88672,115.30078 273.16016,109.64063 281.73828,109.64063 289.68359,109.64063 293.97266,114.28125 298.29687,118.92188 298.29687,127.46484 Z M 291.86328,125.98828 Q 291.82812,120.78516 289.22656,117.9375 286.66016,115.08984 281.38672,115.08984 276.07812,115.08984 272.91406,118.21875 269.78516,121.34766 269.36328,125.98828 Z" />
    <path
       id="path14"
       style="font-style:normal;font-weight:normal;font-size:72px;font-family:Noir;fill:#ff0000"
       d="M 340.16797,150 H 333.55859 V 145.88672 Q 330.71094,148.34766 327.61719,149.71875 324.52344,151.08984 320.90234,151.08984 313.87109,151.08984 309.72266,145.67578 305.60937,140.26172 305.60937,130.66406 305.60937,125.67188 307.01562,121.76953 308.45703,117.86719 310.88281,115.125 313.27344,112.45313 316.4375,111.04688 319.63672,109.64063 323.04687,109.64063 326.14062,109.64063 328.53125,110.30859 330.92187,110.94141 333.55859,112.3125 V 95.296875 H 340.16797 Z M 333.55859,140.33203 V 117.79688 Q 330.88672,116.60156 328.77734,116.14453 326.66797,115.6875 324.17187,115.6875 318.61719,115.6875 315.52344,119.55469 312.42969,123.42188 312.42969,130.52344 312.42969,137.51953 314.82031,141.17578 317.21094,144.79687 322.48437,144.79687 325.29687,144.79687 328.17969,143.56641 331.0625,142.30078 333.55859,140.33203 Z" />
    <path
       id="path16"
       style="font-style:normal;font-weight:normal;font-size:72px;font-family:Noir;fill:#ff0000"
       d="M 386.01172,150 H 379.40234 V 127.64063 Q 379.40234,124.93359 379.08594,122.57813 378.76953,120.1875 377.92578,118.85156 377.04687,117.375 375.39453,116.67188 373.74219,115.93359 371.10547,115.93359 368.39844,115.93359 365.44531,117.26953 362.49219,118.60547 359.78516,120.67969 V 150 H 353.17578 V 110.73047 H 359.78516 V 115.08984 Q 362.87891,112.52344 366.18359,111.08203 369.48828,109.64063 372.96875,109.64063 379.33203,109.64063 382.67187,113.47266 386.01172,117.30469 386.01172,124.51172 Z" />
    <path
       id="path18"
       style="font-style:normal;font-weight:normal;font-size:72px;font-family:Noir;fill:#ff0000"
       d="M 431.60937,131.05078 H 402.67578 Q 402.67578,134.67187 403.76562,137.37891 404.85547,140.05078 406.75391,141.77344 408.58203,143.46094 411.07812,144.30469 413.60937,145.14844 416.63281,145.14844 420.64062,145.14844 424.68359,143.56641 428.76172,141.94922 430.48437,140.40234 H 430.83594 V 147.60937 Q 427.49609,149.01562 424.01562,149.96484 420.53516,150.91406 416.70312,150.91406 406.92969,150.91406 401.44531,145.64062 395.96094,140.33203 395.96094,130.59375 395.96094,120.96094 401.19922,115.30078 406.47266,109.64063 415.05078,109.64063 422.99609,109.64063 427.28516,114.28125 431.60937,118.92188 431.60937,127.46484 Z M 425.17578,125.98828 Q 425.14062,120.78516 422.53906,117.9375 419.97266,115.08984 414.69922,115.08984 409.39062,115.08984 406.22656,118.21875 403.09766,121.34766 402.67578,125.98828 Z" />
    <path
       id="path20"
       style="font-style:normal;font-weight:normal;font-size:72px;font-family:Noir;fill:#ff0000"
       d="M 469.68359,138.67969 Q 469.68359,144.05859 465.21875,147.50391 460.78906,150.94922 453.08984,150.94922 448.73047,150.94922 445.07422,149.92969 441.45312,148.875 438.99219,147.64453 V 140.22656 H 439.34375 Q 442.47266,142.58203 446.30469,143.98828 450.13672,145.35937 453.65234,145.35937 458.01172,145.35937 460.47266,143.95312 462.93359,142.54687 462.93359,139.52344 462.93359,137.20312 461.59766,136.00781 460.26172,134.8125 456.46484,133.96875 455.05859,133.65234 452.77344,133.23047 450.52344,132.80859 448.66016,132.31641 443.49219,130.94531 441.3125,128.30859 439.16797,125.63672 439.16797,121.76953 439.16797,119.34375 440.15234,117.19922 441.17187,115.05469 443.21094,113.36719 445.17969,111.71484 448.20312,110.76563 451.26172,109.78125 455.02344,109.78125 458.53906,109.78125 462.125,110.66016 465.74609,111.50391 468.13672,112.73438 V 119.80078 H 467.78516 Q 465.25391,117.9375 461.63281,116.67188 458.01172,115.37109 454.53125,115.37109 450.91016,115.37109 448.41406,116.77734 445.91797,118.14844 445.91797,120.89063 445.91797,123.31641 447.42969,124.54688 448.90625,125.77734 452.21094,126.55078 454.03906,126.97266 456.28906,127.39453 458.57422,127.81641 460.08594,128.16797 464.69141,129.22266 467.1875,131.78906 469.68359,134.39062 469.68359,138.67969 Z" />
    <path
       id="path22"
       style="font-style:normal;font-weight:normal;font-size:72px;font-family:Noir;fill:#ff0000"
       d="M 511.02734,150 H 504.41797 V 145.88672 Q 501.57031,148.34766 498.47656,149.71875 495.38281,151.08984 491.76172,151.08984 484.73047,151.08984 480.58203,145.67578 476.46875,140.26172 476.46875,130.66406 476.46875,125.67188 477.875,121.76953 479.31641,117.86719 481.74219,115.125 484.13281,112.45313 487.29687,111.04688 490.49609,109.64063 493.90625,109.64063 497,109.64063 499.39062,110.30859 501.78125,110.94141 504.41797,112.3125 V 95.296875 H 511.02734 Z M 504.41797,140.33203 V 117.79688 Q 501.74609,116.60156 499.63672,116.14453 497.52734,115.6875 495.03125,115.6875 489.47656,115.6875 486.38281,119.55469 483.28906,123.42188 483.28906,130.52344 483.28906,137.51953 485.67969,141.17578 488.07031,144.79687 493.34375,144.79687 496.15625,144.79687 499.03906,143.56641 501.92187,142.30078 504.41797,140.33203 Z" />
    <path
       id="path24"
       style="font-style:normal;font-weight:normal;font-size:72px;font-family:Noir;fill:#ff0000"
       d="M 554.55078,150 H 547.97656 V 145.81641 Q 547.09766,146.41406 545.58594,147.50391 544.10937,148.55859 542.70312,149.19141 541.05078,150 538.90625,150.52734 536.76172,151.08984 533.87891,151.08984 528.57031,151.08984 524.87891,147.57422 521.1875,144.05859 521.1875,138.60937 521.1875,134.14453 523.08594,131.40234 525.01953,128.625 528.57031,127.04297 532.15625,125.46094 537.18359,124.89844 542.21094,124.33594 547.97656,124.05469 V 123.03516 Q 547.97656,120.78516 547.16797,119.30859 546.39453,117.83203 544.91797,116.98828 543.51172,116.17969 541.54297,115.89844 539.57422,115.61719 537.42969,115.61719 534.82812,115.61719 531.62891,116.32031 528.42969,116.98828 525.01953,118.28906 H 524.66797 V 111.57422 Q 526.60156,111.04688 530.25781,110.41406 533.91406,109.78125 537.46484,109.78125 541.61328,109.78125 544.67187,110.48438 547.76562,111.15234 550.01562,112.80469 552.23047,114.42188 553.39062,116.98828 554.55078,119.55469 554.55078,123.35156 Z M 547.97656,140.33203 V 129.39844 Q 544.95312,129.57422 540.83984,129.92578 536.76172,130.27734 534.37109,130.94531 531.52344,131.75391 529.76562,133.47656 528.00781,135.16406 528.00781,138.15234 528.00781,141.52734 530.04687,143.25 532.08594,144.9375 536.26953,144.9375 539.75,144.9375 542.63281,143.60156 545.51562,142.23047 547.97656,140.33203 Z" />
    <path
       id="path26"
       style="font-style:normal;font-weight:normal;font-size:72px;font-family:Noir;fill:#ff0000"
       d="M 600.74609,110.73047 577.82422,164.48437 H 570.75781 L 578.07031,148.10156 562.42578,110.73047 H 569.59766 L 581.65625,139.83984 593.82031,110.73047 Z" />
  </g>
  <g
     id="line2"
     style="font-style:normal;font-weight:normal;font-size:72px;font-family:Noir;fill:#ff0000"
     aria-label="september">
    <path
       id="path29"
       style="font-style:normal;font-weight:normal;font-size:72px;font-family:Noir;fill:#ff0000"
       d="M 184.55859,193.67969 Q 184.55859,199.05859 180.09375,202.50391 175.66406,205.94922 167.96484,205.94922 163.60547,205.94922 159.94922,204.92969 156.32812,203.875 153.86719,202.64453 V 195.22656 H 154.21875 Q 157.34766,197.58203 161.17969,198.98828 165.01172,200.35937 168.52734,200.35937 172.88672,200.35937 175.34766,198.95312 177.80859,197.54687 177.80859,194.52344 177.80859,192.20312 176.47266,191.00781 175.13672,189.8125 171.33984,188.96875 169.93359,188.65234 167.64844,188.23047 165.39844,187.80859 163.53516,187.31641 158.36719,185.94531 156.1875,183.30859 154.04297,180.63672 154.04297,176.76953 154.04297,174.34375 155.02734,172.19922 156.04687,170.05469 158.08594,168.36719 160.05469,166.71484 163.07812,165.76562 166.13672,164.78125 169.89844,164.78125 173.41406,164.78125 177,165.66016 180.62109,166.50391 183.01172,167.73437 V 174.80078 H 182.66016 Q 180.12891,172.9375 176.50781,171.67187 172.88672,170.37109 169.40625,170.37109 165.78516,170.37109 163.28906,171.77734 160.79297,173.14844 160.79297,175.89062 160.79297,178.31641 162.30469,179.54687 163.78125,180.77734 167.08594,181.55078 168.91406,181.97266 171.16406,182.39453 173.44922,182.81641 174.96094,183.16797 179.56641,184.22266 182.0625,186.78906 184.55859,189.39062 184.55859,193.67969 Z" />
    <path
       id="path31"
       style="font-style:normal;font-weight:normal;font-size:72px;font-family:Noir;fill:#ff0000"
       d="M 226.92187,186.05078 H 197.98828 Q 197.98828,189.67187 199.07812,192.37891 200.16797,195.05078 202.06641,196.77344 203.89453,198.46094 206.39062,199.30469 208.92187,200.14844 211.94531,200.14844 215.95312,200.14844 219.99609,198.56641 224.07422,196.94922 225.79687,195.40234 H 226.14844 V 202.60937 Q 222.80859,204.01562 219.32812,204.96484 215.84766,205.91406 212.01562,205.91406 202.24219,205.91406 196.75781,200.64062 191.27344,195.33203 191.27344,185.59375 191.27344,175.96094 196.51172,170.30078 201.78516,164.64062 210.36328,164.64062 218.30859,164.64062 222.59766,169.28125 226.92187,173.92187 226.92187,182.46484 Z M 220.48828,180.98828 Q 220.45312,175.78516 217.85156,172.9375 215.28516,170.08984 210.01172,170.08984 204.70312,170.08984 201.53906,173.21875 198.41016,176.34766 197.98828,180.98828 Z" />
    <path
       id="path33"
       style="font-style:normal;font-weight:normal;font-size:72px;font-family:Noir;fill:#ff0000"
       d="M 271.5,184.89062 Q 271.5,189.67187 270.12891,193.64453 268.75781,197.58203 266.26172,200.32422 263.94141,202.92578 260.77734,204.36719 257.64844,205.77344 254.13281,205.77344 251.07422,205.77344 248.57812,205.10547 246.11719,204.4375 243.55078,203.03125 V 219.48437 H 236.94141 V 165.73047 H 243.55078 V 169.84375 Q 246.1875,167.62891 249.45703,166.15234 252.76172,164.64062 256.48828,164.64062 263.58984,164.64062 267.52734,170.01953 271.5,175.36328 271.5,184.89062 Z M 264.67969,185.06641 Q 264.67969,177.96484 262.25391,174.44922 259.82812,170.93359 254.80078,170.93359 251.95312,170.93359 249.07031,172.16406 246.1875,173.39453 243.55078,175.39844 V 197.65234 Q 246.36328,198.91797 248.36719,199.375 250.40625,199.83203 252.97266,199.83203 258.49219,199.83203 261.58594,196.10547 264.67969,192.37891 264.67969,185.06641 Z" />
    <path
       id="path35"
       style="font-style:normal;font-weight:normal;font-size:72px;font-family:Noir;fill:#ff0000"
       d="M 302.19141,204.64844 Q 300.32812,205.14062 298.11328,205.45703 295.93359,205.77344 294.21094,205.77344 288.19922,205.77344 285.07031,202.53906 281.94141,199.30469 281.94141,192.16797 V 171.28516 H 277.47656 V 165.73047 H 281.94141 V 154.44531 H 288.55078 V 165.73047 H 302.19141 V 171.28516 H 288.55078 V 189.17969 Q 288.55078,192.27344 288.69141,194.03125 288.83203,195.75391 289.67578,197.26562 290.44922,198.67187 291.78516,199.33984 293.15625,199.97266 295.93359,199.97266 297.55078,199.97266 299.30859,199.51562 301.06641,199.02344 301.83984,198.70703 H 302.19141 Z" />
    <path
       id="path37"
       style="font-style:normal;font-weight:normal;font-size:72px;font-family:Noir;fill:#ff0000"
       d="M 343.07812,186.05078 H 314.14453 Q 314.14453,189.67187 315.23437,192.37891 316.32422,195.05078 318.22266,196.77344 320.05078,198.46094 322.54687,199.30469 325.07812,200.14844 328.10156,200.14844 332.10937,200.14844 336.15234,198.56641 340.23047,196.94922 341.95312,195.40234 H 342.30469 V 202.60937 Q 338.96484,204.01562 335.48437,204.96484 332.00391,205.91406 328.17187,205.91406 318.39844,205.91406 312.91406,200.64062 307.42969,195.33203 307.42969,185.59375 307.42969,175.96094 312.66797,170.30078 317.94141,164.64062 326.51953,164.64062 334.46484,164.64062 338.75391,169.28125 343.07812,173.92187 343.07812,182.46484 Z M 336.64453,180.98828 Q 336.60937,175.78516 334.00781,172.9375 331.44141,170.08984 326.16797,170.08984 320.85937,170.08984 317.69531,173.21875 314.56641,176.34766 314.14453,180.98828 Z" />
    <path
       id="path39"
       style="font-style:normal;font-weight:normal;font-size:72px;font-family:Noir;fill:#ff0000"
       d="M 410.40234,205 H 403.79297 V 182.64062 Q 403.79297,180.10937 403.54687,177.75391 403.33594,175.39844 402.59766,173.99219 401.78906,172.48047 400.27734,171.70703 398.76562,170.93359 395.91797,170.93359 393.14062,170.93359 390.36328,172.33984 387.58594,173.71094 384.80859,175.85547 384.91406,176.66406 384.98437,177.75391 385.05469,178.80859 385.05469,179.86328 V 205 H 378.44531 V 182.64062 Q 378.44531,180.03906 378.19922,177.71875 377.98828,175.36328 377.25,173.95703 376.44141,172.44531 374.92969,171.70703 373.41797,170.93359 370.57031,170.93359 367.86328,170.93359 365.12109,172.26953 362.41406,173.60547 359.70703,175.67969 V 205 H 353.09766 V 165.73047 H 359.70703 V 170.08984 Q 362.80078,167.52344 365.85937,166.08203 368.95312,164.64062 372.43359,164.64062 376.44141,164.64062 379.21875,166.32812 382.03125,168.01562 383.40234,171.00391 387.41016,167.62891 390.71484,166.15234 394.01953,164.64062 397.78125,164.64062 404.25,164.64062 407.30859,168.57812 410.40234,172.48047 410.40234,179.51172 Z" />
    <path
       id="path41"
       style="font-style:normal;font-weight:normal;font-size:72px;font-family:Noir;fill:#ff0000"
       d="M 457.6875,185.06641 Q 457.6875,189.98828 456.28125,193.92578 454.91016,197.86328 452.55469,200.53516 450.05859,203.3125 447.07031,204.71875 444.08203,206.08984 440.49609,206.08984 437.15625,206.08984 434.66016,205.28125 432.16406,204.50781 429.73828,203.17187 L 429.31641,205 H 423.12891 V 150.29687 H 429.73828 V 169.84375 Q 432.51562,167.55859 435.64453,166.11719 438.77344,164.64062 442.67578,164.64062 449.63672,164.64062 453.64453,169.98437 457.6875,175.32812 457.6875,185.06641 Z M 450.86719,185.24219 Q 450.86719,178.21094 448.54687,174.58984 446.22656,170.93359 441.05859,170.93359 438.17578,170.93359 435.22266,172.19922 432.26953,173.42969 429.73828,175.39844 V 197.89844 Q 432.55078,199.16406 434.55469,199.65625 436.59375,200.14844 439.16016,200.14844 444.64453,200.14844 447.73828,196.5625 450.86719,192.94141 450.86719,185.24219 Z" />
    <path
       id="path43"
       style="font-style:normal;font-weight:normal;font-size:72px;font-family:Noir;fill:#ff0000"
       d="M 500.85937,186.05078 H 471.92578 Q 471.92578,189.67187 473.01562,192.37891 474.10547,195.05078 476.00391,196.77344 477.83203,198.46094 480.32812,199.30469 482.85937,200.14844 485.88281,200.14844 489.89062,200.14844 493.93359,198.56641 498.01172,196.94922 499.73437,195.40234 H 500.08594 V 202.60937 Q 496.74609,204.01562 493.26562,204.96484 489.78516,205.91406 485.95312,205.91406 476.17969,205.91406 470.69531,200.64062 465.21094,195.33203 465.21094,185.59375 465.21094,175.96094 470.44922,170.30078 475.72266,164.64062 484.30078,164.64062 492.24609,164.64062 496.53516,169.28125 500.85937,173.92187 500.85937,182.46484 Z M 494.42578,180.98828 Q 494.39062,175.78516 491.78906,172.9375 489.22266,170.08984 483.94922,170.08984 478.64062,170.08984 475.47656,173.21875 472.34766,176.34766 471.92578,180.98828 Z" />
    <path
       id="path45"
       style="font-style:normal;font-weight:normal;font-size:72px;font-family:Noir;fill:#ff0000"
       d="M 535.38281,172.9375 H 535.03125 Q 533.55469,172.58594 532.14844,172.44531 530.77734,172.26953 528.87891,172.26953 525.82031,172.26953 522.97266,173.64062 520.125,174.97656 517.48828,177.12109 V 205 H 510.87891 V 165.73047 H 517.48828 V 171.53125 Q 521.42578,168.36719 524.41406,167.06641 527.4375,165.73047 530.56641,165.73047 532.28906,165.73047 533.0625,165.83594 533.83594,165.90625 535.38281,166.15234 Z" />
  </g>
  <g
     id="line3"
     style="font-style:normal;font-weight:normal;font-size:57.59999847px;font-family:Noir;fill:#ff0000"
     aria-label="2017">
    <path
       id="path48"
       style="font-style:normal;font-weight:normal;font-size:57.59999847px;font-family:Noir;fill:#ff0000"
       d="M 152.87812,260 H 124.52812 V 254.12188 Q 127.48125,251.59063 130.43437,249.05938 133.41562,246.52813 135.975,244.025 141.375,238.79375 143.37187,235.72813 145.36875,232.63438 145.36875,229.0625 145.36875,225.8 143.20312,223.97188 141.06562,222.11563 137.2125,222.11563 134.65312,222.11563 131.67187,223.01563 128.69062,223.91563 125.85,225.77188 H 125.56875 V 219.86563 Q 127.56562,218.88125 130.88437,218.06563 134.23125,217.25 137.35312,217.25 143.79375,217.25 147.45,220.37188 151.10625,223.46563 151.10625,228.78125 151.10625,231.17188 150.4875,233.25313 149.89687,235.30625 148.71562,237.1625 147.61875,238.90625 146.12812,240.59375 144.66562,242.28125 142.55625,244.33438 139.54687,247.2875 136.34062,250.07188 133.13437,252.82813 130.35,255.19063 H 152.87812 Z" />
    <path
       id="path50"
       style="font-style:normal;font-weight:normal;font-size:57.59999847px;font-family:Noir;fill:#ff0000"
       d="M 189.49687,239.04688 Q 189.49687,250.325 185.95312,255.6125 182.4375,260.87187 175.0125,260.87187 167.475,260.87187 163.9875,255.52813 160.52812,250.18438 160.52812,239.10313 160.52812,227.9375 164.04375,222.62188 167.55937,217.27813 175.0125,217.27813 182.55,217.27813 186.00937,222.70625 189.49687,228.10625 189.49687,239.04688 Z M 182.1,251.81563 Q 183.08437,249.5375 183.42187,246.47188 183.7875,243.37813 183.7875,239.04688 183.7875,234.77188 183.42187,231.62188 183.08437,228.47188 182.07187,226.27813 181.0875,224.1125 179.37187,223.01563 177.68437,221.91875 175.0125,221.91875 172.36875,221.91875 170.625,223.01563 168.90937,224.1125 167.89687,226.33438 166.94062,228.41563 166.575,231.7625 166.2375,235.10938 166.2375,239.10313 166.2375,243.49063 166.54687,246.44375 166.85625,249.39688 167.86875,251.73125 168.79687,253.925 170.48437,255.07813 172.2,256.23125 175.0125,256.23125 177.65625,256.23125 179.4,255.13438 181.14375,254.0375 182.1,251.81563 Z" />
    <path
       id="path52"
       style="font-style:normal;font-weight:normal;font-size:57.59999847px;font-family:Noir;fill:#ff0000"
       d="M 223.8375,260 H 201.16875 V 255.725 H 209.8875 V 227.65625 H 201.16875 V 223.83125 Q 202.94062,223.83125 204.96562,223.55 206.99062,223.24063 208.03125,222.67813 209.325,221.975 210.05625,220.90625 210.81562,219.80938 210.92812,217.98125 H 215.2875 V 255.725 H 223.8375 Z" />
    <path
       id="path54"
       style="font-style:normal;font-weight:normal;font-size:57.59999847px;font-family:Noir;fill:#ff0000"
       d="M 263.01562,224.39375 244.05937,260 H 238.04062 L 258.20624,223.04375 H 234.35624 V 218.12188 H 263.01562 Z" />
  </g>
</svg>
