<?xml version="1.0" encoding="UTF-8" standalone="no"?>
<svg
   xmlns:dc="http://purl.org/dc/elements/1.1/"
   xmlns:cc="http://creativecommons.org/ns#"
   xmlns:rdf="http://www.w3.org/1999/02/22-rdf-syntax-ns#"
   xmlns:svg="http://www.w3.org/2000/svg"
   xmlns="http://www.w3.org/2000/svg"
   id="svg2"
   height="1080"
   width="1920"
   version="1.1">
  <defs
     id="defs4" />
  <metadata
     id="metadata7">
    <rdf:RDF>
      <cc:Work
         rdf:about="">
        <dc:format>image/svg+xml</dc:format>
        <dc:type
           rdf:resource="http://purl.org/dc/dcmitype/StillImage" />
        <dc:title />
      </cc:Work>
    </rdf:RDF>
  </metadata>
  <g
     id="day"
     style="font-style:normal;font-weight:normal;font-size:36px;font-family:A-15-BIT;text-anchor:middle;fill:#ff0000"
     aria-label="04:56">
    <path
       id="path8"
       style="font-style:normal;font-weight:normal;font-size:36px;font-family:A-15-BIT;text-anchor:middle;fill:#ff0000"
       d="M 166.47852,199.4043 Q 166.47852,206.45312 164.26367,209.75781 162.06641,213.04492 157.42578,213.04492 152.71484,213.04492 150.53516,209.70508 148.37305,206.36523 148.37305,199.43945 148.37305,192.46094 150.57031,189.13867 152.76758,185.79883 157.42578,185.79883 162.13672,185.79883 164.29883,189.19141 166.47852,192.56641 166.47852,199.4043 Z M 161.85547,207.38477 Q 162.4707,205.96094 162.68164,204.04492 162.91016,202.11133 162.91016,199.4043 162.91016,196.73242 162.68164,194.76367 162.4707,192.79492 161.83789,191.42383 161.22266,190.07031 160.15039,189.38477 159.0957,188.69922 157.42578,188.69922 155.77344,188.69922 154.68359,189.38477 153.61133,190.07031 152.97852,191.45898 152.38086,192.75977 152.15234,194.85156 151.94141,196.94336 151.94141,199.43945 151.94141,202.18164 152.13477,204.02734 152.32812,205.87305 152.96094,207.33203 153.54102,208.70312 154.5957,209.42383 155.66797,210.14453 157.42578,210.14453 159.07812,210.14453 160.16797,209.45898 161.25781,208.77344 161.85547,207.38477 Z" />
    <path
       id="path10"
       style="font-style:normal;font-weight:normal;font-size:36px;font-family:A-15-BIT;text-anchor:middle;fill:#ff0000"
       d="M 190.0332,205.13477 H 186.14844 V 212.5 H 182.77344 V 205.13477 H 170.24023 V 201.0918 L 182.91406,186.32617 H 186.14844 V 202.32227 H 190.0332 Z M 182.77344,202.32227 V 190.50977 L 172.63086,202.32227 Z" />
    <path
       id="path12"
       style="font-style:normal;font-weight:normal;font-size:36px;font-family:A-15-BIT;text-anchor:middle;fill:#ff0000"
       d="M 202.0918,197.875 H 197.89062 V 192.86523 H 202.0918 Z M 202.0918,212.5 H 197.89062 V 207.49023 H 202.0918 Z" />
    <path
       id="path14"
       style="font-style:normal;font-weight:normal;font-size:36px;font-family:A-15-BIT;text-anchor:middle;fill:#ff0000"
       d="M 228.5293,204.18555 Q 228.5293,206.01367 227.86133,207.68359 227.19336,209.35352 226.0332,210.49609 224.76758,211.72656 223.00977,212.39453 221.26953,213.04492 218.9668,213.04492 216.82227,213.04492 214.83594,212.58789 212.84961,212.14844 211.47852,211.51562 V 207.80664 H 211.72461 Q 213.16602,208.7207 215.09961,209.37109 217.0332,210.00391 218.89648,210.00391 220.14453,210.00391 221.30469,209.65234 222.48242,209.30078 223.39648,208.42187 224.16992,207.66602 224.55664,206.61133 224.96094,205.55664 224.96094,204.16797 224.96094,202.81445 224.48633,201.88281 224.0293,200.95117 223.20312,200.38867 222.28906,199.7207 220.9707,199.45703 219.66992,199.17578 218.05273,199.17578 216.50586,199.17578 215.06445,199.38672 213.64062,199.59766 212.60352,199.80859 V 186.32617 H 228.35352 V 189.40234 H 215.99609 V 196.36328 Q 216.75195,196.29297 217.54297,196.25781 218.33398,196.22266 218.91406,196.22266 221.04102,196.22266 222.64062,196.5918 224.24023,196.94336 225.57617,197.85742 226.98242,198.82422 227.75586,200.35352 228.5293,201.88281 228.5293,204.18555 Z" />
    <path
       id="path16"
       style="font-style:normal;font-weight:normal;font-size:36px;font-family:A-15-BIT;text-anchor:middle;fill:#ff0000"
       d="M 252.04883,204.00977 Q 252.04883,208 249.41211,210.53125 246.79297,213.04492 242.97852,213.04492 241.04492,213.04492 239.46289,212.44727 237.88086,211.84961 236.66797,210.67187 235.15625,209.21289 234.33008,206.80469 233.52148,204.39648 233.52148,201.00391 233.52148,197.52344 234.25977,194.83398 235.01562,192.14453 236.65039,190.05273 238.19727,188.06641 240.64062,186.95898 243.08398,185.83398 246.33594,185.83398 247.37305,185.83398 248.07617,185.92187 248.7793,186.00977 249.5,186.23828 V 189.5957 H 249.32422 Q 248.83203,189.33203 247.83008,189.10352 246.8457,188.85742 245.80859,188.85742 242.0293,188.85742 239.7793,191.23047 237.5293,193.58594 237.16016,197.61133 238.63672,196.71484 240.06055,196.25781 241.50195,195.7832 243.38281,195.7832 245.05273,195.7832 246.31836,196.09961 247.60156,196.39844 248.9375,197.33008 250.48437,198.40234 251.25781,200.03711 252.04883,201.67187 252.04883,204.00977 Z M 248.48047,204.15039 Q 248.48047,202.51562 247.98828,201.44336 247.51367,200.37109 246.40625,199.58008 245.59766,199.01758 244.61328,198.8418 243.62891,198.66602 242.55664,198.66602 241.0625,198.66602 239.7793,199.01758 238.49609,199.36914 237.14258,200.10742 237.10742,200.49414 237.08984,200.86328 237.07227,201.21484 237.07227,201.75977 237.07227,204.53711 237.63477,206.1543 238.21484,207.75391 239.2168,208.68555 240.02539,209.45898 240.95703,209.82812 241.90625,210.17969 243.01367,210.17969 245.5625,210.17969 247.02148,208.63281 248.48047,207.06836 248.48047,204.15039 Z" />
  </g>
</svg>
