<?xml version="1.0" encoding="UTF-8" standalone="no"?>
<svg
   xmlns:dc="http://purl.org/dc/elements/1.1/"
   xmlns:cc="http://creativecommons.org/ns#"
   xmlns:rdf="http://www.w3.org/1999/02/22-rdf-syntax-ns#"
   xmlns:svg="http://www.w3.org/2000/svg"
   xmlns="http://www.w3.org/2000/svg"
   id="svg2"
   height="1080"
   width="1920"
   version="1.1">
  <defs
     id="defs4" />
  <metadata
     id="metadata7">
    <rdf:RDF>
      <cc:Work
         rdf:about="">
        <dc:format>image/svg+xml</dc:format>
        <dc:type
           rdf:resource="http://purl.org/dc/dcmitype/StillImage" />
        <dc:title />
      </cc:Work>
    </rdf:RDF>
  </metadata>
  <g
     id="day"
     style="font-style:normal;font-weight:normal;font-size:38px;font-family:GalanoGrotesqueDEMO-Bold;fill:#ff0000"
     aria-label="#12">
    <path
       id="path9"
       style="font-style:normal;font-weight:normal;font-size:38px;font-family:GalanoGrotesqueDEMO-Bold;fill:#ff0000"
       d="M 36.28,30.332 H 40.004 L 41.296,25.658 H 37.42 L 38.94,19.54 H 33.924 L 32.404,25.658 H 27.958 L 29.478,19.54 H 24.462 L 22.942,25.658 H 19.18 L 17.964,30.332 H 21.802 L 20.7,34.778 H 16.938 L 15.684,39.452 H 19.56 L 18.192,45 H 23.208 L 24.576,39.452 H 28.984 L 27.616,45 H 32.632 L 34,39.452 H 37.762 L 39.054,34.778 H 35.178 Z M 31.226,30.332 30.124,34.778 H 25.716 L 26.818,30.332 Z" />
    <path
       id="path11"
       style="font-style:normal;font-weight:normal;font-size:38px;font-family:GalanoGrotesqueDEMO-Bold;fill:#ff0000"
       d="M 54.251625,19.54 H 50.299625 L 42.091625,24.252 V 29.876 L 48.171625,26.76 V 45 H 54.251625 Z" />
    <path
       id="path13"
       style="font-style:normal;font-weight:normal;font-size:38px;font-family:GalanoGrotesqueDEMO-Bold;fill:#ff0000"
       d="M 76.355156,39.528 H 67.083156 L 70.731156,36.184 C 72.631156,34.36 73.999156,32.84 74.835156,31.586 75.671156,30.332 76.089156,28.888 76.089156,27.216 76.089156,24.708 75.215156,22.732 73.543156,21.212 71.833156,19.73 69.629156,18.97 66.893156,18.97 64.157156,18.97 61.953156,19.73 60.243156,21.212 58.495156,22.694 57.583156,24.708 57.469156,27.216 L 63.283156,28.318 C 63.511156,25.582 64.727156,24.214 66.931156,24.214 67.843156,24.214 68.603156,24.518 69.211156,25.05 69.781156,25.62 70.085156,26.342 70.085156,27.254 70.085156,27.824 69.971156,28.356 69.819156,28.812 69.667156,29.306 69.363156,29.8 68.945156,30.294 68.489156,30.826 68.185156,31.206 67.957156,31.434 67.729156,31.662 67.273156,32.08 66.665156,32.65 L 57.887156,40.896 V 45 H 76.355156 Z" />
  </g>
  <g
     id="month"
     style="font-style:normal;font-weight:normal;font-size:75px;font-family:GalanoGrotesqueDEMO-Bold;fill:#ff0000"
     aria-label="Apr.">
    <path
       id="path16"
       style="font-style:normal;font-weight:normal;font-size:75px;font-family:GalanoGrotesqueDEMO-Bold;fill:#ff0000"
       d="M 174.675,175 153.675,124.75 H 141 L 120,175 H 133.275 L 136.8,165.85 H 157.95 L 161.475,175 Z M 153.825,155.2 H 141 L 147.375,138.7 Z" />
    <path
       id="path18"
       style="font-style:normal;font-weight:normal;font-size:75px;font-family:GalanoGrotesqueDEMO-Bold;fill:#ff0000"
       d="M 202.68867,136.225 C 197.88867,136.225 193.98867,137.65 190.98867,140.35 V 137.35 H 178.98867 V 187.75 H 190.98867 V 172 C 193.98867,174.775 197.88867,176.125 202.68867,176.125 207.78867,176.125 212.06367,174.325 215.66367,170.575 219.26367,166.825 221.06367,162.025 221.06367,156.175 221.06367,150.4 219.26367,145.6 215.66367,141.85 212.06367,138.1 207.78867,136.225 202.68867,136.225 Z M 200.21367,165.925 C 197.66367,166 195.48867,165.025 193.68867,163.225 191.88867,161.425 190.98867,159.025 190.98867,156.175 190.98867,153.4 191.88867,151.075 193.68867,149.2 195.48867,147.4 197.66367,146.425 200.21367,146.425 202.83867,146.425 205.01367,147.4 206.73867,149.2 208.38867,151 209.28867,153.325 209.28867,156.175 209.28867,159.1 208.38867,161.425 206.73867,163.225 205.01367,165.025 202.83867,165.925 200.21367,165.925 Z" />
    <path
       id="path20"
       style="font-style:normal;font-weight:normal;font-size:75px;font-family:GalanoGrotesqueDEMO-Bold;fill:#ff0000"
       d="M 252.30352,136.825 C 246.75352,136.825 242.40352,139.45 239.32852,144.55 V 137.35 H 227.32852 V 175 H 239.32852 V 163.225 C 239.32852,153.85 243.60352,149.125 252.30352,149.125 H 254.47852 L 255.00352,137.125 C 254.17852,136.975 253.27852,136.825 252.30352,136.825 Z" />
    <path
       id="path22"
       style="font-style:normal;font-weight:normal;font-size:75px;font-family:GalanoGrotesqueDEMO-Bold;fill:#ff0000"
       d="M 260.475,161.875 C 258.525,161.875 256.875,162.55 255.6,163.9 254.25,165.25 253.65,166.825 253.65,168.625 253.65,170.575 254.25,172.225 255.6,173.5 256.875,174.775 258.525,175.375 260.475,175.375 262.425,175.375 264.075,174.775 265.425,173.425 266.7,172.15 267.375,170.575 267.375,168.625 267.375,166.825 266.7,165.25 265.35,163.9 264,162.55 262.425,161.875 260.475,161.875 Z" />
  </g>
</svg>
